<svg xmlns="http://www.w3.org/2000/svg" width="410.22" height="429.648" viewBox="0 0 410.22 429.648">
  <g id="Group_1" data-name="Group 1" transform="translate(0 -13.305)">
    <path id="porsojoo" d="M350,83.777c-108.41,0-196.22,87.863-196.22,196.17A196.167,196.167,0,0,0,350,476.167c108.36,0,196.22-87.809,196.22-196.22,0-108.3-87.863-196.17-196.22-196.17Zm-19.656,294.28A19.6,19.6,0,1,1,350,397.659,19.6,19.6,0,0,1,330.344,378.057ZM405.5,296.241,363.945,337.8a19.68,19.68,0,0,1-27.887-27.777l41.551-41.551A39.252,39.252,0,0,0,322.5,213.249l-.223-.109a19.7,19.7,0,0,1-27.832-27.887A78.5,78.5,0,1,1,405.5,296.243Z" transform="translate(-136 -70.472)" fill="#f2f2f2"/>
    <path id="Polygon_1" data-name="Polygon 1" d="M46.79,9.122a6,6,0,0,1,10.42,0L98.873,82.064a6,6,0,0,1-5.21,8.976H10.337a6,6,0,0,1-5.21-8.976Z" transform="matrix(-0.719, -0.695, 0.695, -0.719, 74.811, 442.953)" fill="#f2f2f2"/>
  </g>
</svg>
