<?xml version="1.0" encoding="utf-8"?>
<!-- Generator: Adobe Illustrator 24.2.3, SVG Export Plug-In . SVG Version: 6.00 Build 0)  -->
<svg version="1.1" id="Layer_1" xmlns="http://www.w3.org/2000/svg" xmlns:xlink="http://www.w3.org/1999/xlink" x="0px" y="0px"
	 viewBox="0 0 656.8 199.9" style="enable-background:new 0 0 656.8 199.9;" xml:space="preserve">
<style type="text/css">
	.st0{fill:#0096FF;}
	.st1{enable-background:new    ;}
	.st2{fill:#0096FB;}
</style>
<g id="Group_1" transform="translate(-87 -39.057)">
	<g id="Group_1-2" transform="translate(545.744 25.752)">
		<path id="porsojoo" class="st0" d="M105.2,13.3c-51.3,0-92.9,41.6-92.9,92.9c0,51.3,41.6,92.9,92.9,92.9s92.9-41.6,92.9-92.9l0,0
			C198.1,54.9,156.5,13.3,105.2,13.3C105.2,13.3,105.2,13.3,105.2,13.3z M95.9,152.6c0-5.1,4.2-9.3,9.3-9.3s9.3,4.2,9.3,9.3
			c0,5.1-4.2,9.3-9.3,9.3c-2.5,0-4.8-1-6.6-2.7C96.9,157.4,95.9,155.1,95.9,152.6z M131.5,113.9l-19.7,19.7
			c-3.6,3.7-9.5,3.7-13.2,0.1c-3.7-3.6-3.7-9.5-0.1-13.2c0,0,0.1-0.1,0.1-0.1l19.7-19.7c6.4-8,5.1-19.7-2.9-26.1
			c-6.8-5.4-16.4-5.4-23.2,0l-0.1-0.1c-3.6,3.7-9.5,3.8-13.2,0.2s-3.8-9.5-0.2-13.2c0.1-0.1,0.1-0.1,0.2-0.2
			c14.5-14.5,38-14.5,52.6,0S146,99.4,131.5,113.9L131.5,113.9L131.5,113.9z"/>
		<path id="Polygon_1" class="st0" d="M26.4,198.2c-1.5,0.4-3.1-0.4-3.5-1.9c-0.1-0.5-0.2-1,0-1.5l9.8-38.5c0.4-1.5,1.9-2.4,3.5-2.1
			c0.5,0.1,0.9,0.4,1.3,0.7l28.4,27.4c1.1,1.1,1.2,2.9,0.1,4c-0.3,0.4-0.8,0.6-1.2,0.8L26.4,198.2z"/>
	</g>
	<g class="st1">
		<path class="st2" d="M92.5,157l2-10.9c0.4-2.3,1.2-4.4,2.4-6.3c1.2-1.9,2.6-3.5,4.3-5c1.7-1.4,3.6-2.5,5.7-3.3
			c2.1-0.8,4.3-1.2,6.6-1.2h6.6c2.8,0,5.5,0.5,7.9,1.6c2.4,1.1,4.6,2.5,6.4,4.4c1.8,1.8,3.3,4,4.4,6.5c1.1,2.5,1.6,5.1,1.6,8v11.9
			h7.9c1.1,0,1.7,0.6,1.7,1.7v13.9c0,1.1-0.6,1.7-1.7,1.7h-8c0,0.3,0,0.7-0.1,1.1c-0.2,2.8-0.9,5.3-1.9,7.8
			c-1.1,2.4-2.5,4.7-4.2,6.8c-1.8,2.1-3.8,3.9-6.1,5.5c-2.3,1.6-4.9,2.8-7.6,3.8l-17.2,5.9L98.7,197l17.5-5.9c2.8-0.9,5-2.4,6.8-4.5
			c1.8-2,2.7-4.6,2.7-7.6v-0.7c-1,0.5-2.2,0.9-3.6,1.2c-1.4,0.3-2.7,0.5-4.1,0.5h-6.5c-3.1,0-5.9-0.6-8.4-1.9
			c-2.6-1.3-4.7-3-6.5-5.1s-3-4.6-3.8-7.4C92.1,162.8,92,159.9,92.5,157z M109.5,162.8h16.3v-12c0-0.9-0.3-1.8-1-2.5
			c-0.7-0.7-1.5-1.1-2.5-1.2h-10.1c-1.7,0-2.9,1-3.4,3l-1.9,9.6c-0.2,0.8,0,1.5,0.6,2.2C108,162.4,108.7,162.8,109.5,162.8z"/>
		<path class="st2" d="M146.7,164.7c0-0.5,0.2-0.9,0.5-1.3c0.3-0.4,0.7-0.6,1.1-0.6h22.3c3.3,0,6.5-0.5,9.6-1.5
			c3.1-1,5.7-2.8,7.8-5.2l5.7-6.5c0.2-0.2,0.3-0.4,0.5-0.6c0.2-0.2,0.3-0.3,0.5-0.5c0.2-0.2,0.3-0.3,0.4-0.4l-23.8-7.2
			c-0.6-0.2-1.2-0.1-1.7,0.2c-0.5,0.3-0.8,0.7-1.1,1.2l-4.4,12.3l-12.6-3.4l3.3-11.2c0.6-2.1,1.5-4,2.7-5.5c1.2-1.6,2.5-2.9,4.1-4
			c1.5-1.1,3.2-1.9,5-2.5c1.8-0.5,3.6-0.8,5.4-0.8c1.7,0,3.4,0.2,5.1,0.7l47.2,14.2l-4.1,13.6l-6.4-1.9c-1.8-0.4-3.2-0.4-4.2-0.1
			c-1,0.3-2,1-3.1,2.1l-13,14.2c-3.4,3.6-7.4,6.2-12.1,7.8c-4.7,1.6-9.5,2.4-14.5,2.4h-18.5c-1.1,0-1.7-0.5-1.7-1.7V164.7z
			 M181,194.2h14.8v14.8H181V194.2z"/>
		<path class="st2" d="M245.4,157l2-10.9c0.4-2.3,1.2-4.4,2.4-6.3c1.2-1.9,2.6-3.5,4.3-5c1.7-1.4,3.6-2.5,5.7-3.3
			c2.1-0.8,4.3-1.2,6.6-1.2h6.6c2.8,0,5.5,0.5,7.9,1.6c2.4,1.1,4.6,2.5,6.4,4.4c1.8,1.8,3.3,4,4.4,6.5c1.1,2.5,1.6,5.1,1.6,8v25.7
			c0,3.2-0.5,6.3-1.4,9.3s-2.3,5.7-4.1,8.1c-1.8,2.5-3.9,4.7-6.4,6.5c-2.5,1.9-5.3,3.3-8.3,4.4l-17.2,5.9l-4.4-13.8l17.5-5.9
			c2.8-0.9,5-2.5,6.8-4.5c1.8-2.1,2.7-4.6,2.7-7.6v-0.6c-0.9,0.6-2.1,1-3.5,1.2c-1.4,0.3-2.8,0.4-4.1,0.4h-6.5
			c-3.1,0-5.9-0.6-8.4-1.9c-2.6-1.3-4.7-3-6.5-5.2c-1.8-2.2-3-4.6-3.8-7.4C244.9,162.7,244.8,159.9,245.4,157z M262.3,162.8h16.3
			v-12c0-0.9-0.3-1.8-1-2.5c-0.7-0.7-1.5-1.1-2.5-1.2h-10.1c-1.7,0-2.9,1-3.4,3l-1.9,9.6c-0.2,0.8,0,1.5,0.6,2.2
			C260.8,162.4,261.5,162.8,262.3,162.8z"/>
		<path class="st2" d="M316.2,137.8h14.6v33.4c0,1.7,0.3,3.2,0.9,4.7c0.6,1.5,1.5,2.8,2.6,4c1.1,1.1,2.4,2,3.9,2.7
			c1.5,0.6,3.1,0.9,4.7,0.9h21.5c2.8,0,5.1-1,6.9-2.9c1.8-1.9,2.8-4.3,2.8-7v-37.6h14.6v22.5c0.1,1.3,0.6,2.3,1.5,3.1
			c0.9,0.8,2,1.2,3.2,1.2h3.7c1.3,0,2.5-0.4,3.5-1.2c1-0.8,1.7-1.9,1.9-3.2l4.5-22.2l14.6,2.6l-3.8,18.6c-0.2,1.4,0.1,2.7,1,3.8
			c0.9,1.1,2.1,1.7,3.5,1.7h9.4v-30.4h14.6v32.1c0,2.1-0.4,4.1-1.2,6c-0.8,1.9-1.9,3.5-3.4,5s-3.1,2.5-5,3.4s-4,1.2-6.1,1.2h-7.8
			c-2.4,0-4.8-0.5-7.2-1.5c-2.4-1-4.4-2.7-6.1-5.1c-1.9,2.4-3.9,4.2-6.1,5.1c-2.2,1-4.6,1.5-7.3,1.5c-1.6,0-3-0.2-4.3-0.7
			c-1.3-0.5-2.4-1.3-3.4-2.5v2.5c0,2.8-0.6,5.4-1.8,8c-1.2,2.6-2.9,4.8-5.1,6.8c-2.2,2-4.8,3.6-7.7,4.8s-6.2,1.8-9.6,1.8h-20.8
			c-3.8,0-7.3-0.7-10.6-2.2c-3.3-1.5-6.2-3.4-8.7-5.9c-2.5-2.5-4.4-5.4-5.9-8.7c-1.5-3.3-2.2-6.8-2.2-10.6V137.8z"/>
		<path class="st2" d="M451.5,190.9c2.8-0.9,5.1-2.5,6.8-5c1.7-2.4,2.5-5.2,2.5-8.1v-41.9h14.6v22.9c0,1.2,0.5,2.1,1.4,2.9
			c0.9,0.7,2,1.1,3.2,1.1h7.6c1.1,0,1.7,0.6,1.7,1.7v13.9c0,1.1-0.6,1.7-1.7,1.7h-5.2c-1.2,0-2.4-0.3-3.8-0.8
			c-1.3-0.5-2.4-1.3-3.3-2.4v2c0,3.1-0.5,5.9-1.5,8.6c-1,2.7-2.4,5.1-4.2,7.3c-1.8,2.2-3.9,4.1-6.3,5.8c-2.4,1.7-5.1,3-8,4
			l-17.2,5.8l-4.5-13.7L451.5,190.9z"/>
		<path class="st2" d="M486,178.3v-13.7c0-0.5,0.2-0.9,0.5-1.3c0.3-0.4,0.7-0.6,1.2-0.6h30.9c1.3,0,2.5-0.5,3.4-1.4
			c0.9-0.9,1.4-2,1.4-3.4v-25.5h14.6v25.4c0,3.1-0.6,5.9-1.7,8.6c-1.1,2.7-2.7,5-4.7,7s-4.3,3.6-7,4.7c-2.7,1.1-5.5,1.7-8.6,1.7
			h-28.2c-0.5,0-0.9-0.2-1.2-0.5C486.1,179.1,486,178.7,486,178.3z M506.1,208.9h-14.8v-14.8h14.8V208.9z M501.5,228v-14.8h14.8V228
			H501.5z M512.3,208.9v-14.8H527v14.8H512.3z"/>
	</g>
</g>
</svg>
